{
	"asset":{
		"generator":"Khronos glTF Blender I/O v3.6.27",
		"version":"2.0"
	},
	"extensionsUsed":[
		"KHR_materials_specular",
		"KHR_materials_ior"
	],
	"scene":0,
	"scenes":[
		{
			"name":"Scene",
			"nodes":[
				0
			]
		}
	],
	"nodes":[
		{
			"mesh":0,
			"name":"UFO",
			"scale":[
				0.42485132813453674,
				0.10451040416955948,
				0.42485132813453674
			],
			"translation":[
				0,
				-0.06458679586648941,
				0
			]
		}
	],
	"materials":[
		{
			"doubleSided":true,
			"name":"ufo-color",
			"pbrMetallicRoughness":{
				"baseColorFactor":[
					0.8000000715255737,
					0.07000122219324112,
					0.1519211381673813,
					1
				],
				"metallicFactor":0.5468277931213379,
				"roughnessFactor":0.17975829541683197
			}
		},
		{
			"doubleSided":true,
			"extensions":{
				"KHR_materials_specular":{
					"specularColorFactor":[
						2.2332990844653087,
						2.2332990844653087,
						2.2332990844653087
					]
				},
				"KHR_materials_ior":{
					"ior":1.4500000476837158
				}
			},
			"name":"Material.001",
			"pbrMetallicRoughness":{
				"baseColorFactor":[
					0.005742406938225031,
					0.8000000715255737,
					0.32837584614753723,
					1
				],
				"metallicFactor":0,
				"roughnessFactor":0.23111781477928162
			}
		},
		{
			"doubleSided":true,
			"name":"Material.002",
			"pbrMetallicRoughness":{
				"baseColorFactor":[
					0.056095294654369354,
					0.056095294654369354,
					0.056095294654369354,
					1
				],
				"roughnessFactor":0.5684931874275208
			}
		},
		{
			"doubleSided":true,
			"name":"Material.004",
			"pbrMetallicRoughness":{
				"baseColorFactor":[
					0,
					0,
					0,
					1
				],
				"roughnessFactor":0.07534247636795044
			}
		},
		{
			"doubleSided":true,
			"emissiveFactor":[
				1,
				1,
				1
			],
			"name":"Material.006",
			"pbrMetallicRoughness":{
				"baseColorFactor":[
					0.800000011920929,
					0.800000011920929,
					0.800000011920929,
					1
				],
				"metallicFactor":0,
				"roughnessFactor":0.5
			}
		},
		{
			"doubleSided":true,
			"name":"Material.005",
			"pbrMetallicRoughness":{
				"baseColorFactor":[
					0.800000011920929,
					0.800000011920929,
					0.800000011920929,
					1
				],
				"roughnessFactor":0.5
			}
		}
	],
	"meshes":[
		{
			"name":"Sphere.012",
			"primitives":[
				{
					"attributes":{
						"POSITION":0,
						"NORMAL":1,
						"TEXCOORD_0":2
					},
					"indices":3,
					"material":0
				},
				{
					"attributes":{
						"POSITION":4,
						"NORMAL":5,
						"TEXCOORD_0":6
					},
					"indices":7,
					"material":1
				},
				{
					"attributes":{
						"POSITION":8,
						"NORMAL":9,
						"TEXCOORD_0":10
					},
					"indices":11,
					"material":2
				},
				{
					"attributes":{
						"POSITION":12,
						"NORMAL":13,
						"TEXCOORD_0":14
					},
					"indices":15,
					"material":3
				},
				{
					"attributes":{
						"POSITION":16,
						"NORMAL":17,
						"TEXCOORD_0":18
					},
					"indices":19,
					"material":4
				},
				{
					"attributes":{
						"POSITION":20,
						"NORMAL":21,
						"TEXCOORD_0":22
					},
					"indices":23,
					"material":5
				}
			]
		}
	],
	"accessors":[
		{
			"bufferView":0,
			"componentType":5126,
			"count":6802,
			"max":[
				0.9868771433830261,
				3.18239164352417,
				0.9868768453598022
			],
			"min":[
				-0.9868766665458679,
				0.11073968559503555,
				-0.9868771433830261
			],
			"type":"VEC3"
		},
		{
			"bufferView":1,
			"componentType":5126,
			"count":6802,
			"type":"VEC3"
		},
		{
			"bufferView":2,
			"componentType":5126,
			"count":6802,
			"type":"VEC2"
		},
		{
			"bufferView":3,
			"componentType":5123,
			"count":31308,
			"type":"SCALAR"
		},
		{
			"bufferView":4,
			"componentType":5126,
			"count":1603,
			"max":[
				0.38843464851379395,
				3.1183719635009766,
				0.38843464851379395
			],
			"min":[
				-0.38843464851379395,
				1.0764334201812744,
				-0.38843464851379395
			],
			"type":"VEC3"
		},
		{
			"bufferView":5,
			"componentType":5126,
			"count":1603,
			"type":"VEC3"
		},
		{
			"bufferView":6,
			"componentType":5126,
			"count":1603,
			"type":"VEC2"
		},
		{
			"bufferView":7,
			"componentType":5123,
			"count":7872,
			"type":"SCALAR"
		},
		{
			"bufferView":8,
			"componentType":5126,
			"count":1089,
			"max":[
				0.024701450020074844,
				3.3703300952911377,
				0.02470146305859089
			],
			"min":[
				-0.024701492860913277,
				3.176572322845459,
				-0.024701466783881187
			],
			"type":"VEC3"
		},
		{
			"bufferView":9,
			"componentType":5126,
			"count":1089,
			"type":"VEC3"
		},
		{
			"bufferView":10,
			"componentType":5126,
			"count":1089,
			"type":"VEC2"
		},
		{
			"bufferView":11,
			"componentType":5123,
			"count":6336,
			"type":"SCALAR"
		},
		{
			"bufferView":12,
			"componentType":5126,
			"count":36529,
			"max":[
				0.7100607752799988,
				1.7625823020935059,
				0.710060715675354
			],
			"min":[
				-0.7100605368614197,
				-0.6060217618942261,
				-0.710060715675354
			],
			"type":"VEC3"
		},
		{
			"bufferView":13,
			"componentType":5126,
			"count":36529,
			"type":"VEC3"
		},
		{
			"bufferView":14,
			"componentType":5126,
			"count":36529,
			"type":"VEC2"
		},
		{
			"bufferView":15,
			"componentType":5123,
			"count":184320,
			"type":"SCALAR"
		},
		{
			"bufferView":16,
			"componentType":5126,
			"count":2830,
			"max":[
				0.6703512668609619,
				0.15367089211940765,
				0.6703513264656067
			],
			"min":[
				-0.6703513860702515,
				-0.815512478351593,
				-0.6703512668609619
			],
			"type":"VEC3"
		},
		{
			"bufferView":17,
			"componentType":5126,
			"count":2830,
			"type":"VEC3"
		},
		{
			"bufferView":18,
			"componentType":5126,
			"count":2830,
			"type":"VEC2"
		},
		{
			"bufferView":19,
			"componentType":5123,
			"count":12576,
			"type":"SCALAR"
		},
		{
			"bufferView":20,
			"componentType":5126,
			"count":4592,
			"max":[
				0.8828089833259583,
				0.8838685750961304,
				0.879335343837738
			],
			"min":[
				-0.8839035630226135,
				0.7357692718505859,
				-0.8806473612785339
			],
			"type":"VEC3"
		},
		{
			"bufferView":21,
			"componentType":5126,
			"count":4592,
			"type":"VEC3"
		},
		{
			"bufferView":22,
			"componentType":5126,
			"count":4592,
			"type":"VEC2"
		},
		{
			"bufferView":23,
			"componentType":5123,
			"count":23040,
			"type":"SCALAR"
		}
	],
	"bufferViews":[
		{
			"buffer":0,
			"byteLength":81624,
			"byteOffset":0,
			"target":34962
		},
		{
			"buffer":0,
			"byteLength":81624,
			"byteOffset":81624,
			"target":34962
		},
		{
			"buffer":0,
			"byteLength":54416,
			"byteOffset":163248,
			"target":34962
		},
		{
			"buffer":0,
			"byteLength":62616,
			"byteOffset":217664,
			"target":34963
		},
		{
			"buffer":0,
			"byteLength":19236,
			"byteOffset":280280,
			"target":34962
		},
		{
			"buffer":0,
			"byteLength":19236,
			"byteOffset":299516,
			"target":34962
		},
		{
			"buffer":0,
			"byteLength":12824,
			"byteOffset":318752,
			"target":34962
		},
		{
			"buffer":0,
			"byteLength":15744,
			"byteOffset":331576,
			"target":34963
		},
		{
			"buffer":0,
			"byteLength":13068,
			"byteOffset":347320,
			"target":34962
		},
		{
			"buffer":0,
			"byteLength":13068,
			"byteOffset":360388,
			"target":34962
		},
		{
			"buffer":0,
			"byteLength":8712,
			"byteOffset":373456,
			"target":34962
		},
		{
			"buffer":0,
			"byteLength":12672,
			"byteOffset":382168,
			"target":34963
		},
		{
			"buffer":0,
			"byteLength":438348,
			"byteOffset":394840,
			"target":34962
		},
		{
			"buffer":0,
			"byteLength":438348,
			"byteOffset":833188,
			"target":34962
		},
		{
			"buffer":0,
			"byteLength":292232,
			"byteOffset":1271536,
			"target":34962
		},
		{
			"buffer":0,
			"byteLength":368640,
			"byteOffset":1563768,
			"target":34963
		},
		{
			"buffer":0,
			"byteLength":33960,
			"byteOffset":1932408,
			"target":34962
		},
		{
			"buffer":0,
			"byteLength":33960,
			"byteOffset":1966368,
			"target":34962
		},
		{
			"buffer":0,
			"byteLength":22640,
			"byteOffset":2000328,
			"target":34962
		},
		{
			"buffer":0,
			"byteLength":25152,
			"byteOffset":2022968,
			"target":34963
		},
		{
			"buffer":0,
			"byteLength":55104,
			"byteOffset":2048120,
			"target":34962
		},
		{
			"buffer":0,
			"byteLength":55104,
			"byteOffset":2103224,
			"target":34962
		},
		{
			"buffer":0,
			"byteLength":36736,
			"byteOffset":2158328,
			"target":34962
		},
		{
			"buffer":0,
			"byteLength":46080,
			"byteOffset":2195064,
			"target":34963
		}
	],
	"buffers":[
		{
			"byteLength":2241144,
			"uri":"data:application/octet-stream;base64,"
		}
	]
}
